<?xml version="1.0" standalone="no"?>
<!DOCTYPE svg PUBLIC "-//W3C//DTD SVG 20010904//EN"
 "http://www.w3.org/TR/2001/REC-SVG-20010904/DTD/svg10.dtd">
<svg version="1.0" xmlns="http://www.w3.org/2000/svg"
 width="640.000000pt" height="640.000000pt" viewBox="0 0 640.000000 640.000000"
 preserveAspectRatio="xMidYMid meet">
<metadata>
Created by potrace 1.11, written by Peter Selinger 2001-2013
</metadata>
<g transform="translate(0.000000,640.000000) scale(0.100000,-0.100000)"
fill="#000000" stroke="none">
<path d="M5806 6388 c-25 -14 -55 -20 -122 -23 -80 -5 -166 -36 -203 -74 -17
-17 -35 -31 -41 -31 -18 0 -148 -87 -188 -126 -21 -20 -64 -49 -97 -66 -33
-16 -67 -36 -76 -44 -8 -8 -19 -14 -24 -14 -4 0 -23 -11 -41 -25 -18 -14 -35
-25 -39 -25 -3 0 -18 -11 -32 -24 -14 -13 -44 -32 -67 -42 -23 -10 -43 -21
-46 -24 -11 -13 -177 -98 -215 -110 -67 -21 -120 -58 -181 -123 -67 -71 -304
-227 -304 -200 0 5 -4 3 -8 -2 -15 -21 -60 -36 -157 -54 -55 -10 -116 -27
-135 -38 -19 -11 -52 -30 -72 -42 -21 -13 -43 -24 -50 -25 -7 -2 -33 -9 -58
-16 -25 -7 -85 -14 -133 -15 -64 -2 -92 -7 -106 -19 -9 -9 -22 -16 -27 -16 -5
0 -47 -25 -93 -55 -46 -30 -90 -55 -98 -55 -7 0 -21 -4 -31 -10 -33 -18 -87
-39 -128 -49 -23 -6 -53 -20 -67 -31 -14 -11 -30 -20 -37 -20 -16 0 -102 -51
-96 -58 3 -2 1 -12 -4 -21 -6 -12 0 -30 20 -63 22 -36 42 -52 87 -73 32 -14
70 -38 85 -52 16 -15 36 -28 45 -29 102 -15 262 -133 278 -205 4 -16 10 -29
14 -29 21 0 46 -166 42 -278 -1 -30 -23 -70 -60 -110 -59 -64 -31 -139 66
-178 68 -28 162 -47 195 -39 13 3 55 7 93 9 61 3 83 10 170 55 54 28 121 58
149 66 27 8 73 33 102 56 29 22 81 51 116 64 151 55 183 68 186 77 2 4 8 6 13
3 20 -13 278 97 369 157 14 9 48 24 75 33 78 26 157 67 190 98 17 15 43 35 58
43 15 8 38 24 50 34 12 10 36 29 54 42 17 13 65 49 106 81 40 31 78 57 83 57
5 0 16 9 24 19 7 11 17 18 20 16 4 -2 16 4 27 15 19 17 68 45 162 94 20 10 43
24 51 31 8 7 33 18 55 25 22 7 61 33 87 58 26 25 54 50 63 54 13 8 15 87 15
681 l0 673 -49 1 c-26 0 -56 -4 -65 -9z"/>
<path d="M766 4884 c-19 -11 -51 -16 -90 -15 -60 1 -61 0 -85 -37 -14 -20 -37
-61 -53 -90 -15 -30 -31 -59 -36 -65 -26 -36 -19 -133 15 -206 27 -59 30 -74
32 -185 1 -67 4 -128 6 -136 2 -8 6 -32 9 -52 5 -33 61 -162 120 -278 13 -25
29 -69 36 -98 7 -29 23 -68 36 -88 13 -19 24 -42 24 -50 0 -8 9 -36 21 -61 11
-25 23 -54 25 -64 2 -11 6 -28 9 -39 3 -11 7 -28 9 -37 3 -10 14 -58 24 -108
23 -105 34 -136 65 -179 24 -34 27 -58 32 -261 3 -135 12 -171 51 -200 22 -16
72 -19 106 -6 13 5 28 9 33 11 6 1 14 8 18 16 5 8 12 12 17 9 5 -3 11 -1 15 5
3 5 14 10 23 10 9 0 33 15 52 34 20 18 49 40 65 49 17 8 57 40 90 71 33 31 63
56 66 56 3 0 30 24 61 53 31 28 84 77 119 107 73 64 182 162 189 171 10 12
100 58 100 51 0 -4 7 2 16 13 8 11 18 20 22 21 16 2 150 69 187 94 43 29 133
63 145 55 4 -3 13 2 20 10 7 8 16 13 20 10 5 -3 15 4 24 16 8 12 26 23 39 24
34 4 59 22 86 62 18 27 28 34 46 31 14 -3 39 4 58 16 65 39 115 75 118 84 2 4
31 28 64 52 67 48 118 98 113 108 -55 111 -60 119 -93 132 -19 8 -35 17 -35
21 0 4 -15 13 -34 19 -19 6 -47 27 -62 48 -16 20 -34 43 -41 50 -11 11 -15 23
-12 35 0 1 -9 22 -19 46 -18 40 -19 47 -5 105 8 33 17 72 19 85 3 13 11 36 18
50 8 14 16 35 18 46 1 11 6 22 9 25 18 14 76 128 75 146 -3 31 -64 92 -100
100 -17 3 -36 10 -41 14 -6 5 -42 11 -80 15 -101 9 -125 10 -175 2 -112 -17
-136 -20 -155 -19 -109 7 -204 8 -225 2 -16 -4 -41 1 -69 13 -24 10 -58 19
-75 19 -35 1 -104 -10 -117 -18 -22 -13 -152 -20 -304 -15 -38 1 -113 0 -165
-3 -52 -3 -107 -5 -121 -5 -15 -1 -83 24 -153 54 -149 64 -180 71 -220 49z"/>
<path d="M5849 3706 c-14 -7 -43 -12 -65 -10 -21 2 -73 -5 -114 -15 -77 -19
-147 -34 -165 -36 -5 0 -16 -4 -22 -8 -7 -5 -39 -10 -70 -13 -32 -2 -74 -6
-93 -9 -19 -3 -44 -7 -55 -9 -12 -1 -32 -10 -46 -19 -14 -9 -52 -19 -85 -22
-32 -3 -76 -9 -96 -14 -29 -7 -46 -4 -80 11 -44 21 -61 25 -133 34 -22 3 -47
12 -55 19 -8 7 -19 14 -25 15 -5 2 -21 7 -35 12 -36 14 -226 3 -285 -17 -27
-9 -67 -25 -87 -36 -20 -11 -51 -21 -70 -23 -18 -2 -44 -6 -58 -9 -14 -4 -41
-8 -60 -11 -19 -3 -44 -7 -55 -10 -11 -3 -42 -11 -70 -17 -27 -6 -64 -22 -81
-34 -40 -31 -102 -46 -194 -50 -41 -2 -78 -4 -81 -4 -17 -2 -81 -68 -99 -103
-30 -57 -34 -156 -9 -205 10 -21 19 -43 19 -50 0 -7 6 -27 14 -45 7 -18 19
-51 26 -73 15 -47 46 -85 71 -85 10 0 26 -8 36 -19 10 -10 43 -24 73 -30 30
-7 74 -18 97 -26 24 -8 57 -17 74 -20 18 -3 40 -10 50 -15 10 -6 24 -10 32
-10 9 0 58 -20 111 -45 53 -25 103 -45 111 -45 7 0 15 -3 17 -7 4 -9 74 -43
89 -43 9 0 107 -59 132 -81 57 -47 94 -68 144 -83 70 -21 171 -54 198 -66 11
-4 36 -15 55 -23 42 -18 185 -56 243 -63 78 -11 321 -88 472 -150 45 -18 92
-35 107 -38 14 -2 40 -11 57 -20 17 -9 31 -14 31 -12 0 3 10 2 23 -3 12 -4 34
-11 50 -15 l27 -6 0 835 0 835 -22 0 c-13 0 -35 -6 -49 -14z"/>
<path d="M2525 3153 c-33 -4 -181 -40 -205 -50 -8 -3 -17 -7 -20 -8 -26 -9
-48 -18 -62 -26 -10 -5 -23 -9 -29 -9 -18 0 -269 -127 -320 -163 -14 -9 -47
-37 -74 -62 -27 -24 -61 -47 -77 -50 -15 -4 -28 -11 -28 -16 0 -5 -7 -9 -15
-9 -8 0 -15 -4 -15 -10 0 -5 -6 -10 -14 -10 -20 0 -260 -153 -293 -187 -15
-16 -39 -42 -53 -59 -14 -16 -50 -49 -80 -72 -30 -23 -60 -47 -67 -52 -7 -6
-22 -11 -33 -13 -12 -2 -30 -11 -41 -20 -10 -9 -23 -17 -27 -17 -5 0 -24 -19
-43 -41 -19 -23 -39 -47 -46 -54 -7 -7 -10 -15 -7 -17 2 -3 6 -38 8 -79 3 -43
16 -106 30 -149 27 -78 117 -267 148 -310 10 -14 21 -50 24 -80 4 -37 20 -81
49 -136 40 -74 59 -126 72 -194 3 -14 6 -29 7 -35 15 -58 26 -150 29 -231 3
-63 7 -79 41 -134 36 -58 39 -70 42 -144 1 -45 3 -81 4 -81 1 0 3 -9 5 -20 5
-23 43 -57 56 -50 5 3 23 -2 41 -11 32 -17 180 -31 259 -25 19 1 138 114 166
156 37 57 102 220 127 320 13 56 45 141 70 193 25 51 46 95 46 98 0 3 20 35
45 71 25 36 48 78 51 92 15 77 91 248 130 292 8 8 14 21 14 27 0 7 4 12 9 12
5 0 14 13 19 29 9 26 97 160 112 171 4 3 15 19 24 35 39 70 185 285 210 310
12 12 41 35 66 52 34 23 57 53 95 119 27 49 51 104 53 124 11 120 -8 176 -87
250 -32 30 -78 88 -102 129 -50 85 -61 93 -149 120 -74 22 -122 28 -165 24z"/>
<path d="M3549 2486 c-13 -6 -29 -16 -36 -22 -6 -6 -40 -25 -75 -42 -48 -25
-86 -56 -158 -133 -52 -56 -122 -129 -156 -163 -57 -57 -125 -152 -234 -327
-25 -39 -49 -77 -55 -83 -24 -27 -65 -85 -65 -93 0 -5 -8 -18 -18 -29 -9 -10
-23 -30 -29 -44 -7 -14 -17 -32 -22 -40 -31 -51 -151 -311 -157 -340 -6 -34
-81 -153 -123 -197 -12 -12 -21 -27 -21 -33 0 -5 -4 -10 -8 -10 -5 0 -17 -18
-27 -40 -10 -22 -27 -47 -38 -57 -11 -10 -29 -38 -41 -63 -12 -25 -41 -78 -65
-118 -51 -88 -49 -106 12 -99 23 3 60 12 83 20 22 8 47 11 55 7 8 -4 59 -7
115 -8 72 0 111 -5 140 -17 44 -20 81 -20 174 1 85 19 138 23 175 13 17 -5 46
-11 65 -14 19 -3 73 -19 120 -35 85 -29 118 -38 175 -45 103 -12 121 -16 270
-61 33 -10 62 -19 65 -19 3 -1 12 -4 20 -7 64 -25 161 -40 196 -32 22 5 62 6
89 2 28 -4 73 -10 100 -14 49 -7 146 -9 290 -4 83 2 210 -6 245 -16 14 -4 36
-8 50 -9 14 -1 43 -10 65 -20 22 -9 57 -18 78 -20 21 -1 50 -8 65 -15 44 -21
66 -28 82 -28 19 0 57 -9 69 -16 4 -3 33 -8 62 -11 30 -4 59 -8 66 -10 7 -2
15 0 18 4 8 14 106 9 154 -8 31 -11 74 -16 131 -15 59 1 108 -5 158 -19 70
-19 75 -19 145 -3 67 16 124 26 155 28 16 2 13 813 -3 814 -49 4 -201 59 -225
82 -12 11 -45 32 -73 47 -29 15 -95 50 -147 77 -52 27 -114 63 -138 79 -23 16
-48 29 -53 29 -9 0 -49 29 -124 90 -41 34 -165 162 -165 170 0 8 -125 113
-203 171 -29 21 -57 42 -63 46 -9 8 -31 20 -71 43 -30 16 -104 46 -181 74 -98
35 -172 97 -273 226 -66 86 -177 193 -217 211 -18 7 -32 17 -32 21 0 4 -6 5
-13 2 -8 -3 -20 2 -27 11 -7 8 -17 15 -22 15 -6 0 -38 13 -72 29 -33 16 -79
34 -101 41 -22 7 -49 19 -61 27 -23 15 -59 14 -95 -1z"/>
</g>
</svg>
