<?xml version="1.0" standalone="no"?>
<!DOCTYPE svg PUBLIC "-//W3C//DTD SVG 20010904//EN"
 "http://www.w3.org/TR/2001/REC-SVG-20010904/DTD/svg10.dtd">
<svg version="1.0" xmlns="http://www.w3.org/2000/svg"
 width="1126.000000pt" height="1126.000000pt" viewBox="0 0 1126.000000 1126.000000"
 preserveAspectRatio="xMidYMid meet">
<metadata>
Created by potrace 1.11, written by Peter Selinger 2001-2013
</metadata>
<g transform="translate(0.000000,1126.000000) scale(0.100000,-0.100000)"
fill="#000000" stroke="none">
<path d="M0 5630 l0 -5630 5630 0 5630 0 0 5630 0 5630 -5630 0 -5630 0 0
-5630z m6125 4285 c934 -108 1760 -469 2438 -1065 400 -352 714 -761 947
-1235 223 -455 340 -883 381 -1395 14 -177 6 -523 -16 -710 -155 -1299 -974
-2435 -2210 -3065 -483 -246 -975 -393 -1545 -462 -182 -22 -740 -25 -925 -5
-187 20 -468 69 -638 111 l-154 38 -724 -402 c-398 -221 -727 -400 -731 -398
-5 2 -8 347 -8 766 l-1 762 -45 33 c-228 168 -561 499 -756 752 -626 813 -886
1806 -738 2816 95 649 352 1264 756 1810 167 226 468 540 689 720 681 552
1496 869 2430 944 168 13 686 4 850 -15z"/>
<path d="M7440 8584 c-19 -7 -56 -13 -82 -13 -54 -1 -126 -26 -148 -51 -8 -10
-39 -30 -67 -45 -29 -16 -75 -47 -103 -71 -28 -24 -76 -57 -108 -74 -31 -17
-82 -48 -112 -69 -66 -47 -285 -171 -300 -171 -29 0 -117 -57 -159 -102 -87
-95 -261 -191 -386 -213 -48 -8 -96 -25 -138 -49 -74 -41 -183 -70 -235 -61
-37 6 -104 -22 -167 -71 -34 -25 -174 -88 -222 -98 -18 -4 -37 -13 -43 -21 -6
-7 -22 -16 -36 -19 -42 -11 -74 -37 -74 -60 0 -39 38 -84 92 -112 29 -15 59
-35 66 -45 7 -11 22 -19 32 -19 31 0 109 -38 156 -77 28 -22 57 -60 75 -97 27
-53 31 -75 36 -166 l5 -105 -36 -42 c-64 -73 -41 -131 68 -172 50 -18 74 -21
156 -17 85 3 106 8 157 34 77 40 149 72 164 72 6 0 33 16 60 36 38 28 214 107
264 118 54 13 128 43 220 91 61 31 139 68 174 81 35 13 98 50 140 81 162 123
330 244 363 263 92 52 137 76 170 90 20 8 60 37 87 63 l51 48 0 539 0 540 -42
-1 c-24 -1 -59 -7 -78 -15z"/>
<path d="M3350 7350 c-8 -5 -38 -10 -67 -10 l-52 0 -45 -82 c-60 -112 -65
-151 -31 -225 23 -49 28 -74 31 -163 5 -159 9 -171 109 -370 12 -25 26 -61 30
-80 4 -19 15 -49 25 -66 24 -42 64 -162 85 -254 31 -135 35 -147 61 -185 24
-35 25 -46 28 -182 3 -125 7 -149 23 -172 30 -40 92 -39 164 2 86 49 160 100
205 143 35 33 114 103 157 139 7 6 52 46 101 90 95 85 138 114 254 170 40 19
85 43 100 54 15 10 53 27 84 36 31 9 67 24 80 34 13 10 35 21 50 24 15 4 36
22 48 43 18 28 27 34 44 30 12 -3 33 2 48 12 56 37 83 57 93 68 6 6 35 29 65
51 86 63 88 66 59 120 -23 45 -55 71 -110 94 -52 20 -119 130 -119 195 0 57
39 168 90 254 16 28 30 59 30 69 0 23 -64 81 -90 81 -10 0 -21 4 -24 9 -10 16
-169 21 -256 7 -47 -7 -89 -11 -94 -8 -5 3 -57 6 -115 7 -58 1 -124 7 -146 13
-32 9 -54 8 -105 -4 -47 -12 -127 -16 -295 -18 l-230 -1 -100 42 c-98 42 -155
52 -185 33z"/>
<path d="M7502 6404 c-24 -9 -51 -13 -59 -10 -15 6 -77 -6 -206 -40 -32 -8
-96 -19 -142 -24 -46 -5 -97 -15 -113 -24 -16 -8 -54 -18 -84 -20 -30 -3 -62
-8 -70 -11 -9 -4 -30 0 -46 9 -16 8 -58 22 -93 30 -35 8 -84 21 -108 30 -69
26 -236 7 -313 -35 -13 -8 -66 -21 -118 -31 -52 -10 -111 -21 -130 -25 -19 -3
-56 -19 -81 -34 -37 -24 -60 -30 -129 -34 -94 -5 -118 -17 -154 -74 -34 -53
-36 -137 -6 -211 12 -30 25 -69 29 -86 11 -42 40 -84 59 -84 8 0 24 -7 33 -16
10 -9 35 -20 56 -24 86 -17 233 -64 301 -96 40 -19 77 -34 81 -34 19 0 161
-75 206 -109 66 -50 98 -66 165 -81 30 -7 60 -16 65 -20 23 -17 196 -70 275
-85 79 -15 294 -81 366 -111 54 -23 241 -84 258 -84 15 0 16 59 16 675 0 371
-3 675 -7 675 -5 -1 -28 -8 -51 -16z"/>
<path d="M4710 5914 c-153 -40 -388 -150 -470 -220 -28 -24 -85 -62 -127 -85
-139 -76 -236 -145 -315 -223 -46 -46 -97 -86 -125 -98 -26 -11 -68 -43 -94
-69 l-48 -49 5 -62 c7 -86 37 -173 104 -305 32 -62 61 -132 64 -155 4 -24 21
-68 37 -98 40 -70 78 -220 85 -335 5 -75 11 -99 37 -145 24 -43 30 -69 32
-120 3 -81 17 -120 45 -120 12 0 35 -7 51 -16 20 -10 41 -13 60 -9 17 4 43 2
58 -5 50 -20 100 2 167 73 50 52 66 80 102 169 23 58 47 129 52 157 11 57 94
238 134 290 14 19 29 51 32 70 16 84 83 204 281 503 69 103 141 201 161 218
72 61 81 72 116 135 30 53 36 73 36 124 0 78 -16 115 -75 171 -25 25 -62 73
-81 106 -22 40 -44 65 -62 72 -116 45 -169 51 -262 26z"/>
<path d="M5650 5433 c-8 -4 -28 -16 -45 -28 -16 -13 -40 -26 -52 -29 -34 -11
-81 -53 -204 -186 -181 -196 -446 -614 -510 -804 -18 -53 -36 -83 -127 -211
-52 -73 -89 -130 -104 -160 -8 -16 -29 -56 -47 -87 -29 -52 -31 -59 -16 -65
10 -3 40 0 68 7 69 17 220 14 279 -7 45 -16 53 -16 143 2 85 16 103 17 163 5
37 -7 94 -23 127 -35 33 -12 96 -27 140 -34 44 -7 127 -26 185 -43 188 -54
207 -58 281 -56 41 1 113 -4 161 -11 67 -11 104 -11 161 -3 45 7 87 8 108 3
19 -5 72 -12 118 -15 46 -4 96 -13 112 -21 15 -8 40 -15 54 -15 15 0 47 -9 73
-20 72 -30 189 -50 253 -43 35 3 71 1 95 -8 21 -7 77 -14 124 -14 47 -1 104
-8 127 -15 37 -11 56 -10 143 6 l100 19 -2 324 -3 324 -79 25 c-44 13 -93 34
-110 47 -17 13 -91 55 -164 94 -194 103 -234 132 -365 263 -174 175 -302 263
-455 313 -64 21 -153 92 -215 172 -107 138 -151 173 -302 237 -60 26 -123 54
-138 62 -30 15 -51 17 -77 7z"/>
</g>
</svg>
